{
  "accessors": [
    {
      "bufferView": 2,
      "componentType": 5126,
      "count": 65532,
      "max": [
        0.5302219986915588,
        0.9985730051994324,
        0.36268100142478943
      ],
      "min": [
        -0.5119379758834839,
        -0.7504119873046875,
        -0.3069469928741455
      ],
      "type": "VEC3"
    },
    {
      "bufferView": 2,
      "byteOffset": 786384,
      "componentType": 5126,
      "count": 65532,
      "max": [
        0.9999804496765137,
        0.9999983310699463,
        0.9999997615814209
      ],
      "min": [
        -0.9999910593032837,
        -0.9999793767929077,
        -0.9999808669090271
      ],
      "type": "VEC3"
    },
    {
      "bufferView": 1,
      "componentType": 5126,
      "count": 65532,
      "max": [
        0.998046875,
        0.99853515625
      ],
      "min": [
        0.0016927719116210938,
        0.0016927719116210938
      ],
      "type": "VEC2"
    },
    {
      "bufferView": 0,
      "componentType": 5125,
      "count": 301938,
      "type": "SCALAR"
    },
    {
      "bufferView": 2,
      "byteOffset": 1572768,
      "componentType": 5126,
      "count": 65532,
      "max": [
        0.5344669818878174,
        0.9977369904518127,
        0.334648996591568
      ],
      "min": [
        -0.518651008605957,
        -1.0037070512771606,
        -0.3679159879684448
      ],
      "type": "VEC3"
    },
    {
      "bufferView": 2,
      "byteOffset": 2359152,
      "componentType": 5126,
      "count": 65532,
      "max": [
        0.9999933242797852,
        0.9999963045120239,
        0.9999576807022095
      ],
      "min": [
        -0.9999921321868896,
        -0.9999973773956299,
        -0.9999819993972778
      ],
      "type": "VEC3"
    },
    {
      "bufferView": 1,
      "byteOffset": 524256,
      "componentType": 5126,
      "count": 65532,
      "max": [
        0.998046875,
        0.99853515625
      ],
      "min": [
        0.0016927719116210938,
        0.0016927719116210938
      ],
      "type": "VEC2"
    },
    {
      "bufferView": 0,
      "byteOffset": 1207752,
      "componentType": 5125,
      "count": 311223,
      "type": "SCALAR"
    },
    {
      "bufferView": 2,
      "byteOffset": 3145536,
      "componentType": 5126,
      "count": 33700,
      "max": [
        0.3676620125770569,
        0.9962949752807617,
        -0.0010229999898001552
      ],
      "min": [
        -0.46769699454307556,
        -1.001973032951355,
        -0.36560899019241333
      ],
      "type": "VEC3"
    },
    {
      "bufferView": 2,
      "byteOffset": 3549936,
      "componentType": 5126,
      "count": 33700,
      "max": [
        0.9999333620071411,
        0.999983549118042,
        0.9999809265136719
      ],
      "min": [
        -0.9999644756317139,
        -0.9999480247497559,
        -0.9999362230300903
      ],
      "type": "VEC3"
    },
    {
      "bufferView": 1,
      "byteOffset": 1048512,
      "componentType": 5126,
      "count": 33700,
      "max": [
        0.998046875,
        0.99853515625
      ],
      "min": [
        0.0016927719116210938,
        0.0016937255859375
      ],
      "type": "VEC2"
    },
    {
      "bufferView": 0,
      "byteOffset": 2452644,
      "componentType": 5125,
      "count": 132120,
      "type": "SCALAR"
    }
  ],
  "asset": {
    "extras": {
      "author": "illustros (https://sketchfab.com/illustros)",
      "license": "SKETCHFAB Standard (https://sketchfab.com/licenses)",
      "source": "https://sketchfab.com/3d-models/modern-soldier-6ab4f72dc7c7404dbc6b16eaae0bfce0",
      "title": "Modern Soldier"
    },
    "generator": "Sketchfab-16.58.0",
    "version": "2.0"
  },
  "bufferViews": [
    {
      "buffer": 0,
      "byteLength": 2981124,
      "name": "floatBufferViews",
      "target": 34963
    },
    {
      "buffer": 0,
      "byteLength": 1318112,
      "byteOffset": 2981124,
      "byteStride": 8,
      "name": "floatBufferViews",
      "target": 34962
    },
    {
      "buffer": 0,
      "byteLength": 3954336,
      "byteOffset": 4299236,
      "byteStride": 12,
      "name": "floatBufferViews",
      "target": 34962
    }
  ],
  "buffers": [
    {
      "byteLength": 8253572,
      "uri": "scene.bin"
    }
  ],
  "images": [
    {
      "uri": "textures/material_0_baseColor.jpeg"
    }
  ],
  "materials": [
    {
      "doubleSided": true,
      "name": "material_0",
      "pbrMetallicRoughness": {
        "baseColorTexture": {
          "index": 0
        },
        "metallicFactor": 0.0,
        "roughnessFactor": 0.5114754098360655
      }
    }
  ],
  "meshes": [
    {
      "name": "Object_0",
      "primitives": [
        {
          "attributes": {
            "NORMAL": 1,
            "POSITION": 0,
            "TEXCOORD_0": 2
          },
          "indices": 3,
          "material": 0,
          "mode": 4
        }
      ]
    },
    {
      "name": "Object_1",
      "primitives": [
        {
          "attributes": {
            "NORMAL": 5,
            "POSITION": 4,
            "TEXCOORD_0": 6
          },
          "indices": 7,
          "material": 0,
          "mode": 4
        }
      ]
    },
    {
      "name": "Object_2",
      "primitives": [
        {
          "attributes": {
            "NORMAL": 9,
            "POSITION": 8,
            "TEXCOORD_0": 10
          },
          "indices": 11,
          "material": 0,
          "mode": 4
        }
      ]
    }
  ],
  "nodes": [
    {
      "children": [
        1
      ],
      "matrix": [
        1.0,
        0.0,
        0.0,
        0.0,
        0.0,
        2.220446049250313e-16,
        -1.0,
        0.0,
        0.0,
        1.0,
        2.220446049250313e-16,
        0.0,
        0.0,
        0.0,
        0.0,
        1.0
      ],
      "name": "Sketchfab_model"
    },
    {
      "children": [
        2
      ],
      "name": "root"
    },
    {
      "children": [
        3
      ],
      "matrix": [
        1.0,
        0.0,
        0.0,
        0.0,
        0.0,
        2.220446049250313e-16,
        1.0,
        0.0,
        0.0,
        -1.0,
        2.220446049250313e-16,
        0.0,
        0.0,
        0.0,
        0.0,
        1.0
      ],
      "name": "GLTF_SceneRootNode"
    },
    {
      "children": [
        4,
        5,
        6
      ],
      "name": "_0"
    },
    {
      "mesh": 0,
      "name": "Object_4"
    },
    {
      "mesh": 1,
      "name": "Object_5"
    },
    {
      "mesh": 2,
      "name": "Object_6"
    }
  ],
  "samplers": [
    {
      "magFilter": 9729,
      "minFilter": 9987,
      "wrapS": 10497,
      "wrapT": 10497
    }
  ],
  "scene": 0,
  "scenes": [
    {
      "name": "Sketchfab_Scene",
      "nodes": [
        0
      ]
    }
  ],
  "textures": [
    {
      "sampler": 0,
      "source": 0
    }
  ]
}
